<svg id="Слой_1" data-name="Слой 1" xmlns="http://www.w3.org/2000/svg" xmlns:xlink="http://www.w3.org/1999/xlink" viewBox="0 0 1322 1606.98"><defs><style>.cls-1{fill:#f47211;}.cls-2{fill:url(#Безымянный_градиент_189);}.cls-3{fill:#fff;}</style><linearGradient id="Безымянный_градиент_189" x1="619" y1="1548.5" x2="1941" y2="1548.5" gradientUnits="userSpaceOnUse"><stop offset="0" stop-color="#ffe515"/><stop offset="1" stop-color="#e9000d"/></linearGradient></defs><circle class="cls-1" cx="745" cy="342" r="65"/><circle class="cls-1" cx="241" cy="206" r="65"/><circle class="cls-1" cx="744" cy="65" r="65"/><circle class="cls-1" cx="1080" cy="65" r="65"/><circle class="cls-1" cx="1081" cy="342" r="65"/><path class="cls-2" d="M1793.29,2006.59a48,48,0,1,1-76.66,57.78l-81.05-107.55a661.53,661.53,0,0,1-711.33-.11L843.37,2064a48,48,0,1,1-76.66-57.77l80.63-107C707.47,1778.05,619,1599.11,619,1399.51a658,658,0,0,1,124.35-386h1073.3a658,658,0,0,1,124.35,386c0,199.68-88.54,378.67-228.49,499.88Z" transform="translate(-619 -476.51)"/><circle class="cls-1" cx="407" cy="342" r="65"/><circle class="cls-1" cx="915" cy="206" r="65"/><circle class="cls-1" cx="579" cy="206" r="65"/><circle class="cls-1" cx="406" cy="65" r="65"/><path class="cls-3" d="M1535,1393.38a133.13,133.13,0,0,0-188.27,0L1280,1460.13l-66.75-66.75a133.12,133.12,0,1,0,0,188.27L1280,1514.9l66.74,66.75A133.13,133.13,0,0,0,1535,1393.38Zm-349.2,161.34a94.31,94.31,0,1,1,0-133.38l66.68,66.69Zm321.75,0a94.31,94.31,0,0,1-133.37,0L1307.5,1488l66.69-66.69a94.31,94.31,0,0,1,133.37,133.38Z" transform="translate(-619 -476.51)"/></svg>