<svg id="Слой_1" data-name="Слой 1" xmlns="http://www.w3.org/2000/svg" viewBox="0 0 1322 1606.97"><defs><style>.cls-1{fill:#fff;}</style></defs><circle class="cls-1" cx="406" cy="65" r="65"/><circle class="cls-1" cx="744" cy="65" r="65"/><circle class="cls-1" cx="1080" cy="65" r="65"/><circle class="cls-1" cx="241" cy="206" r="65"/><circle class="cls-1" cx="579" cy="206" r="65"/><circle class="cls-1" cx="915" cy="206" r="65"/><circle class="cls-1" cx="407" cy="342" r="65"/><circle class="cls-1" cx="745" cy="342" r="65"/><circle class="cls-1" cx="1081" cy="342" r="65"/><path class="cls-1" d="M1185.81,1421.34l66.68,66.69-66.68,66.69a94.31,94.31,0,1,1,0-133.38Z" transform="translate(-619 -476.51)"/><path class="cls-1" d="M1507.56,1421.34a94.31,94.31,0,1,1-133.37,133.38L1307.5,1488l66.69-66.69a94.31,94.31,0,0,1,133.37,0Z" transform="translate(-619 -476.51)"/><path class="cls-1" d="M1712.51,1899.39c140-121.21,228.49-300.2,228.49-499.88a658,658,0,0,0-124.35-386H743.35a658,658,0,0,0-124.35,386c0,199.6,88.47,378.54,228.34,499.75l-80.63,107A48,48,0,1,0,843.37,2064l80.88-107.33a661.53,661.53,0,0,0,711.33.11l81.05,107.55a48,48,0,1,0,76.66-57.78ZM1535,1581.64a133.13,133.13,0,0,1-188.27,0L1280,1514.9l-66.75,66.74a133.12,133.12,0,1,1,0-188.26l66.75,66.75,66.74-66.75A133.12,133.12,0,0,1,1535,1581.64Z" transform="translate(-619 -476.51)"/></svg>