<svg id="Слой_1" data-name="Слой 1" xmlns="http://www.w3.org/2000/svg" viewBox="0 0 1291.43 439.85"><defs><style>.cls-1{fill:#fff;}</style></defs><circle cx="111.13" cy="17.79" r="17.79"/><circle cx="203.64" cy="17.79" r="17.79"/><circle cx="295.61" cy="17.79" r="17.79"/><circle cx="65.97" cy="56.39" r="17.79"/><circle cx="158.48" cy="56.39" r="17.79"/><circle cx="250.45" cy="56.39" r="17.79"/><circle cx="111.4" cy="93.61" r="17.79"/><circle cx="203.92" cy="93.61" r="17.79"/><circle cx="295.89" cy="93.61" r="17.79"/><path d="M379.28,454.88a13.14,13.14,0,1,1-21,15.81l-22.19-29.43a181.08,181.08,0,0,1-194.7,0L119.27,470.6a13.14,13.14,0,1,1-21-15.81l22.07-29.29A181,181,0,0,1,91.9,183.06H385.68a181,181,0,0,1-28.51,242.48Z" transform="translate(-57.86 -36.07)"/><path class="cls-1" d="M308.59,287a36.45,36.45,0,0,0-51.54,0L238.79,305.3,220.52,287a36.44,36.44,0,1,0,0,51.53l18.27-18.26,18.26,18.26A36.44,36.44,0,0,0,308.59,287ZM213,331.19a25.81,25.81,0,1,1,0-36.5l18.26,18.25Zm88.07,0a25.79,25.79,0,0,1-36.5,0l-18.26-18.25,18.26-18.25a25.81,25.81,0,0,1,36.5,36.5Z" transform="translate(-57.86 -36.07)"/><path d="M565.68,213.43H544.83V75.25h20.85Z" transform="translate(-57.86 -36.07)"/><path d="M614.6,213.43H594.42V109.79h19.37v16.87h1.28c4.79-11,15-18.22,30.56-18.22,21.19,0,35.29,13.43,35.29,39.07v65.92H660.75V149.94c0-15.05-8.3-24-22-24-14,0-24.15,9.45-24.15,26Z" transform="translate(-57.86 -36.07)"/><path d="M757.23,126H734.9v87.44H714.66V126h-16v-16.2h16v-12c0-19.43,14.37-29,30.76-29a48.64,48.64,0,0,1,16.87,2.76l-4.72,16.33a28,28,0,0,0-9-1.55c-9.85,0-13.63,5-13.63,14.17v9.31h22.33Z" transform="translate(-57.86 -36.07)"/><path d="M775.45,81.79c0-6.61,5.73-12.08,12.75-12.08S801,75.18,801,81.79s-5.8,12-12.75,12S775.45,88.4,775.45,81.79Zm2.56,28h20.17V213.43H778Z" transform="translate(-57.86 -36.07)"/><path d="M845.48,213.43H825.31V109.79h19.36v16.87H846c4.79-11,15-18.22,30.57-18.22,21.19,0,35.29,13.43,35.29,39.07v65.92H891.63V149.94c0-15.05-8.3-24-22-24-14,0-24.16,9.45-24.16,26Z" transform="translate(-57.86 -36.07)"/><path d="M936.23,81.79c0-6.61,5.74-12.08,12.75-12.08s12.76,5.47,12.76,12.08-5.81,12-12.76,12S936.23,88.4,936.23,81.79Zm2.56,28H959V213.43H938.79Z" transform="translate(-57.86 -36.07)"/><path d="M1034.47,126h-21.25v57c0,11.68,5.87,13.83,12.41,13.83a33,33,0,0,0,7.09-.87l3.64,16.66a38.35,38.35,0,0,1-13.09,2.16c-15.92.34-30.3-8.77-30.23-27.59V126H977.86v-16.2H993V85h20.18v24.83h21.25Z" transform="translate(-57.86 -36.07)"/><path d="M1055.72,250.07l4.86-16.53c11.07,3,18.29,1.89,23.41-11.87l2.5-6.89-37.92-105h21.59l26.25,80.43h1.08l26.25-80.43h21.65l-42.71,117.48c-6,16.32-16.53,25-33.19,25C1063.41,252.3,1058.15,251.15,1055.72,250.07Z" transform="translate(-57.86 -36.07)"/><path d="M538,285.25H645v17.94H601.84V423.43H581.06V303.19H538Z" transform="translate(-57.86 -36.07)"/><path d="M647.12,372.09c0-32.26,19.09-53.65,48.31-53.65s48.31,21.39,48.31,53.65c0,32.05-19.1,53.44-48.31,53.44S647.12,404.14,647.12,372.09Zm76.24-.07c0-19.84-8.9-36.71-27.86-36.71s-28,16.87-28,36.71,8.91,36.57,28,36.57S723.36,391.92,723.36,372Z" transform="translate(-57.86 -36.07)"/><path d="M765.6,441l17.34-7.16c3.57,5.94,10.12,14.38,26.92,14.38,15.32,0,26.45-7,26.45-23.28V404.54H835c-3.65,6.61-11,17.34-30,17.34-24.49,0-43.32-17.61-43.32-50.67s18.42-52.77,43.46-52.77c19.3,0,26.45,11.74,30,18.15h1.49v-16.8h19.77V425.73c0,26.65-20.38,38.73-46.76,38.73C784.9,464.46,771.06,453.66,765.6,441Zm70.91-70c0-21-9.44-35.36-27-35.36-18.22,0-27.4,15.45-27.4,35.36,0,20.38,9.38,34.21,27.4,34.21C826.86,405.15,836.51,392.33,836.51,370.94Z" transform="translate(-57.86 -36.07)"/><path d="M878.81,372.29c0-31.85,19-53.85,47.91-53.85,23.48,0,45.88,14.64,45.88,52.09v7.16H898.92c.54,20,12.15,31.17,29.42,31.17,11.47,0,20.24-5,23.89-14.78l19.09,3.44c-4.59,16.87-20.58,28-43.18,28C897.57,425.53,878.81,404.47,878.81,372.29Zm74-9.72c-.06-15.86-10.32-27.46-26-27.46-16.4,0-27.06,12.75-27.87,27.46Z" transform="translate(-57.86 -36.07)"/><path d="M1043.45,336h-21.26v57c0,11.68,5.87,13.83,12.42,13.83a32.85,32.85,0,0,0,7.08-.87l3.65,16.66a38.4,38.4,0,0,1-13.09,2.16c-15.93.34-30.3-8.77-30.23-27.59V336H986.84v-16.2H1002V295h20.17v24.83h21.26Z" transform="translate(-57.86 -36.07)"/><path d="M1088,423.43h-20.17V285.25h19.9v51.41h1.28c4.86-11.2,14.58-18.22,30.7-18.22,21.33,0,35.5,13.23,35.5,39.07v65.92h-20.18V359.94c0-15.18-8.3-24-22.2-24-14.37,0-24.83,9.45-24.83,26Z" transform="translate(-57.86 -36.07)"/><path d="M1177.57,372.29c0-31.85,19-53.85,47.91-53.85,23.48,0,45.88,14.64,45.88,52.09v7.16h-73.68c.54,20,12.15,31.17,29.42,31.17,11.47,0,20.24-5,23.89-14.78l19.09,3.44c-4.59,16.87-20.58,28-43.18,28C1196.33,425.53,1177.57,404.47,1177.57,372.29Zm74-9.72c-.06-15.86-10.32-27.46-26-27.46-16.4,0-27.06,12.75-27.87,27.46Z" transform="translate(-57.86 -36.07)"/><path d="M1293.83,319.79h19.5v16.47h1.08c3.78-11.14,14.17-18,26.31-18a81.81,81.81,0,0,1,8.57.47V338a47.84,47.84,0,0,0-10.52-1.21c-14.31,0-24.77,9.78-24.77,23.34v63.29h-20.17Z" transform="translate(-57.86 -36.07)"/></svg>