<svg id="Слой_1" data-name="Слой 1" xmlns="http://www.w3.org/2000/svg" viewBox="0 0 2444.28 439.85"><defs><style>.cls-1{fill:#fff;}</style></defs><circle cx="111.13" cy="17.79" r="17.79"/><circle cx="203.64" cy="17.79" r="17.79"/><circle cx="295.61" cy="17.79" r="17.79"/><circle cx="65.97" cy="56.39" r="17.79"/><circle cx="158.48" cy="56.39" r="17.79"/><circle cx="250.45" cy="56.39" r="17.79"/><circle cx="111.4" cy="93.61" r="17.79"/><circle cx="203.92" cy="93.61" r="17.79"/><circle cx="295.89" cy="93.61" r="17.79"/><path d="M379.28,454.88a13.14,13.14,0,1,1-21,15.81l-22.19-29.43a181.08,181.08,0,0,1-194.7,0L119.27,470.6a13.14,13.14,0,1,1-21-15.81l22.07-29.29A181,181,0,0,1,91.9,183.06H385.68a181,181,0,0,1-28.51,242.48Z" transform="translate(-57.86 -36.07)"/><path class="cls-1" d="M308.59,287a36.45,36.45,0,0,0-51.54,0L238.79,305.3,220.52,287a36.44,36.44,0,1,0,0,51.53l18.27-18.26,18.26,18.26A36.44,36.44,0,0,0,308.59,287ZM213,331.19a25.81,25.81,0,1,1,0-36.5l18.26,18.25Zm88.07,0a25.79,25.79,0,0,1-36.5,0l-18.26-18.25,18.26-18.25a25.81,25.81,0,0,1,36.5,36.5Z" transform="translate(-57.86 -36.07)"/><path d="M587.55,338.18H560.12V156.37h27.43Z" transform="translate(-57.86 -36.07)"/><path d="M651.92,338.18H625.38V201.82h25.47V224h1.69c6.3-14.47,19.71-24,40.22-24,27.87,0,46.43,17.67,46.43,51.41v86.73H712.64V254.64c0-19.8-10.92-31.6-28.94-31.6-18.46,0-31.78,12.43-31.78,34.18Z" transform="translate(-57.86 -36.07)"/><path d="M839.6,223.13H810.21V338.18H783.58v-115h-21V201.82h21V186c0-25.57,18.91-38.18,40.48-38.18a63.63,63.63,0,0,1,22.19,3.64L840,173a36.51,36.51,0,0,0-11.9-2c-13,0-17.93,6.57-17.93,18.64v12.25H839.6Z" transform="translate(-57.86 -36.07)"/><path d="M863.57,165c0-8.7,7.54-15.89,16.78-15.89s16.77,7.19,16.77,15.89-7.63,15.8-16.77,15.8S863.57,173.68,863.57,165Zm3.37,36.84h26.54V338.18H866.94Z" transform="translate(-57.86 -36.07)"/><path d="M955.72,338.18H929.17V201.82h25.48V224h1.69c6.3-14.47,19.71-24,40.21-24,27.88,0,46.43,17.67,46.43,51.41v86.73h-26.54V254.64c0-19.8-10.92-31.6-28.94-31.6-18.47,0-31.78,12.43-31.78,34.18Z" transform="translate(-57.86 -36.07)"/><path d="M1075.13,165c0-8.7,7.54-15.89,16.77-15.89s16.78,7.19,16.78,15.89-7.63,15.8-16.78,15.8S1075.13,173.68,1075.13,165Zm3.37,36.84H1105V338.18H1078.5Z" transform="translate(-57.86 -36.07)"/><path d="M1204.38,223.13h-28v75c0,15.36,7.72,18.2,16.33,18.2a43.62,43.62,0,0,0,9.33-1.15l4.79,21.92a50.66,50.66,0,0,1-17.22,2.85c-21,.44-39.86-11.55-39.77-36.31V223.13h-20V201.82h20V169.15h26.54v32.67h28Z" transform="translate(-57.86 -36.07)"/><path d="M1232.35,386.38l6.39-21.75c14.56,4,24.06,2.49,30.81-15.62l3.28-9.05-49.89-138.14h28.41l34.53,105.82h1.42l34.54-105.82h28.49l-56.19,154.56c-7.9,21.48-21.75,32.93-43.68,32.93C1242.47,389.31,1235.55,387.81,1232.35,386.38Z" transform="translate(-57.86 -36.07)"/><path d="M1434.67,156.37h140.71V180h-56.72v158.2h-27.35V180h-56.64Z" transform="translate(-57.86 -36.07)"/><path d="M1578.23,270.62c0-42.43,25.12-70.58,63.56-70.58s63.57,28.15,63.57,70.58c0,42.17-25.13,70.31-63.57,70.31S1578.23,312.79,1578.23,270.62Zm100.32-.09c0-26.1-11.72-48.29-36.67-48.29-25.12,0-36.84,22.19-36.84,48.29s11.72,48.12,36.84,48.12C1666.83,318.65,1678.55,296.72,1678.55,270.53Z" transform="translate(-57.86 -36.07)"/><path d="M1734.13,361.26l22.81-9.41c4.71,7.81,13.32,18.91,35.42,18.91,20.16,0,34.8-9.23,34.8-30.63V313.32h-1.68c-4.8,8.7-14.47,22.82-39.51,22.82-32.22,0-57-23.17-57-66.67S1753.21,200,1786.15,200c25.39,0,34.8,15.45,39.5,23.89h2V201.82h26V341.2c0,35.06-26.81,51-61.52,51C1759.52,392.16,1741.32,378,1734.13,361.26Zm93.3-92.15c0-27.61-12.43-46.52-35.6-46.52-24,0-36,20.33-36,46.52,0,26.81,12.34,45,36,45C1814.74,314.12,1827.43,297.25,1827.43,269.11Z" transform="translate(-57.86 -36.07)"/><path d="M1883.1,270.89c0-41.9,25-70.85,63-70.85,30.89,0,60.37,19.27,60.37,68.54V278h-97c.71,26.28,16,41,38.71,41,15.09,0,26.63-6.57,31.43-19.44l25.12,4.53c-6,22.19-27.08,36.84-56.82,36.84C1907.78,340.93,1883.1,313.23,1883.1,270.89Zm97.38-12.79c-.08-20.86-13.58-36.13-34.17-36.13-21.58,0-35.6,16.78-36.67,36.13Z" transform="translate(-57.86 -36.07)"/><path d="M2099.71,223.13h-28v75c0,15.36,7.72,18.2,16.33,18.2a43.62,43.62,0,0,0,9.33-1.15l4.79,21.92A50.66,50.66,0,0,1,2085,340c-20.95.44-39.86-11.55-39.77-36.31V223.13h-20V201.82h20V169.15h26.54v32.67h28Z" transform="translate(-57.86 -36.07)"/><path d="M2158.39,338.18h-26.54V156.37H2158V224h1.68c6.4-14.73,19.18-24,40.4-24,28.05,0,46.69,17.4,46.69,51.41v86.73h-26.54V254.64c0-20-10.92-31.6-29.21-31.6-18.91,0-32.67,12.43-32.67,34.18Z" transform="translate(-57.86 -36.07)"/><path d="M2276.2,270.89c0-41.9,25-70.85,63-70.85,30.9,0,60.37,19.27,60.37,68.54V278h-96.94c.71,26.28,16,41,38.7,41,15.1,0,26.64-6.57,31.43-19.44l25.12,4.53c-6,22.19-27.07,36.84-56.81,36.84C2300.88,340.93,2276.2,313.23,2276.2,270.89Zm97.39-12.79C2373.5,237.24,2360,222,2339.41,222c-21.57,0-35.6,16.78-36.66,36.13Z" transform="translate(-57.86 -36.07)"/><path d="M2429.17,201.82h25.65v21.66h1.42c5-14.65,18.65-23.7,34.63-23.7a106.43,106.43,0,0,1,11.27.62v25.39a62.82,62.82,0,0,0-13.85-1.6c-18.82,0-32.58,12.87-32.58,30.72v83.27h-26.54Z" transform="translate(-57.86 -36.07)"/></svg>